<svg width="127" height="48" viewBox="0 0 127 48" fill="none" xmlns="http://www.w3.org/2000/svg">
<path d="M110.021 38.7299L110.645 37.2057L102.25 16.0667C101.733 14.8507 101.475 13.9678 101.475 13.4181C101.475 12.835 101.625 12.2937 101.925 11.7939C102.225 11.2942 102.633 10.8944 103.149 10.5945C103.682 10.2947 104.232 10.1448 104.798 10.1448C105.781 10.1448 106.522 10.4613 107.022 11.0943C107.522 11.7106 107.963 12.6018 108.346 13.7679L114.118 30.5591L119.591 14.9423C120.024 13.6763 120.415 12.6851 120.765 11.9688C121.115 11.2525 121.481 10.7695 121.864 10.5196C122.264 10.2697 122.822 10.1448 123.539 10.1448C124.055 10.1448 124.546 10.2864 125.013 10.5696C125.496 10.8361 125.862 11.2026 126.112 11.669C126.379 12.1354 126.512 12.6268 126.512 13.1432C126.445 13.4597 126.337 13.9095 126.187 14.4925C126.037 15.0755 125.854 15.6669 125.637 16.2666L116.742 39.5545C115.976 41.6034 115.226 43.2109 114.493 44.3769C113.76 45.543 112.786 46.4342 111.57 47.0506C110.37 47.6836 108.746 48.0001 106.697 48.0001C104.698 48.0001 103.199 47.7835 102.2 47.3504C101.2 46.9173 100.7 46.126 100.7 44.9766C100.7 44.1937 100.934 43.5857 101.4 43.1526C101.883 42.7361 102.591 42.5279 103.524 42.5279C103.89 42.5279 104.249 42.5779 104.598 42.6778C105.032 42.7778 105.406 42.8278 105.723 42.8278C106.506 42.8278 107.122 42.7111 107.572 42.4779C108.022 42.2447 108.421 41.8366 108.771 41.2536C109.138 40.6872 109.554 39.846 110.021 38.7299Z" fill="#001A42"/>
<path d="M91.834 33.7324V4.14784C91.834 2.78188 92.1338 1.74909 92.7335 1.04945C93.3499 0.349818 94.1744 0 95.2072 0C96.24 0 97.0729 0.349818 97.7059 1.04945C98.3389 1.73243 98.6554 2.76523 98.6554 4.14784V33.7324C98.6554 35.115 98.3306 36.1562 97.6809 36.8558C97.0479 37.5388 96.2234 37.8803 95.2072 37.8803C94.2077 37.8803 93.3915 37.5221 92.7585 36.8058C92.1422 36.0895 91.834 35.0651 91.834 33.7324Z" fill="#001A42"/>
<path d="M81.0114 33.7324V4.14784C81.0114 2.78188 81.3113 1.74909 81.9109 1.04945C82.5273 0.349818 83.3519 0 84.3847 0C85.4175 0 86.2504 0.349818 86.8834 1.04945C87.5164 1.73243 87.8329 2.76523 87.8329 4.14784V33.7324C87.8329 35.115 87.508 36.1562 86.8584 36.8558C86.2254 37.5388 85.4008 37.8803 84.3847 37.8803C83.3852 37.8803 82.5689 37.5221 81.9359 36.8058C81.3196 36.0895 81.0114 35.0651 81.0114 33.7324Z" fill="#001A42"/>
<path d="M70.8635 34.0323V33.1578C70.0472 34.1906 69.1894 35.0568 68.2898 35.7564C67.3903 36.4561 66.4075 36.9725 65.3414 37.3056C64.2752 37.6554 63.0592 37.8304 61.6933 37.8304C60.0441 37.8304 58.5616 37.4889 57.2456 36.8059C55.9463 36.1229 54.9384 35.1817 54.2222 33.9824C53.3726 32.5331 52.9478 30.4509 52.9478 27.7356V14.2177C52.9478 12.8517 53.256 11.8356 53.8723 11.1692C54.4887 10.4863 55.3049 10.1448 56.3211 10.1448C57.3539 10.1448 58.1868 10.4863 58.8198 11.1692C59.4528 11.8522 59.7693 12.8684 59.7693 14.2177V25.137C59.7693 26.7195 59.9025 28.0521 60.1691 29.1349C60.4356 30.201 60.9103 31.0422 61.5933 31.6586C62.2929 32.2583 63.2341 32.5581 64.4168 32.5581C65.5662 32.5581 66.649 32.2166 67.6651 31.5336C68.6813 30.8507 69.4226 29.9595 69.889 28.86C70.2721 27.8939 70.4637 25.7783 70.4637 22.5133V14.2177C70.4637 12.8684 70.7802 11.8522 71.4132 11.1692C72.0462 10.4863 72.8708 10.1448 73.8869 10.1448C74.903 10.1448 75.7193 10.4863 76.3356 11.1692C76.952 11.8356 77.2602 12.8517 77.2602 14.2177V33.9824C77.2602 35.2817 76.9603 36.2562 76.3606 36.9058C75.7776 37.5555 75.0197 37.8803 74.0868 37.8803C73.154 37.8803 72.3794 37.5472 71.763 36.8809C71.1633 36.1979 70.8635 35.2484 70.8635 34.0323Z" fill="#001A42"/>
<path fill-rule="evenodd" clip-rule="evenodd" d="M45.5048 6.69571C43.8357 6.14158 41.9993 6.71891 40.9475 8.12844L28.2321 25.1684V10.5695C28.2321 8.81081 27.1056 7.24984 25.4364 6.69571C23.7673 6.14158 21.9309 6.71891 20.8791 8.12844L0.810651 35.0222C-0.537523 36.8289 -0.165824 39.3864 1.64087 40.7346C3.44756 42.0828 6.00509 41.7111 7.35327 39.9044L20.0687 22.8644V37.4633C20.0687 39.222 21.1952 40.783 22.8643 41.3371C24.5335 41.8912 26.3699 41.3139 27.4217 39.9044L40.1371 22.8644V37.4633C40.1371 39.7176 41.9645 41.545 44.2188 41.545C46.473 41.545 48.3005 39.7176 48.3005 37.4633V10.5695C48.3005 8.81081 47.174 7.24984 45.5048 6.69571Z" fill="url(#paint0_linear_0_37)"/>
<path fill-rule="evenodd" clip-rule="evenodd" d="M48.3008 22.9934V10.5695C48.3008 8.81081 47.1742 7.24984 45.5051 6.69571C43.836 6.14158 41.9996 6.71891 40.9477 8.12844L28.2324 25.1684V11.7019L20.0689 22.9931V37.4633C20.0689 39.222 21.1955 40.783 22.8646 41.3371C24.5337 41.8912 26.3701 41.3139 27.422 39.9044L40.1373 22.8644V27.0664C40.3706 26.7426 40.5615 26.4959 40.703 26.3406C41.3606 25.6188 42.6982 25.1487 44.3514 24.5677C45.5486 24.1469 46.9112 23.6681 48.3008 22.9934Z" fill="url(#paint1_linear_0_37)"/>
<path fill-rule="evenodd" clip-rule="evenodd" d="M48.3004 11.4802L40.2071 22.7455L40.137 22.9687V37.4634C40.137 39.7177 41.9644 41.5451 44.2187 41.5451C46.4729 41.5451 48.3004 39.7177 48.3004 37.4634V11.4802Z" fill="url(#paint2_linear_0_37)"/>
<defs>
<linearGradient id="paint0_linear_0_37" x1="9.42958" y1="32.214" x2="27.2653" y2="10.8187" gradientUnits="userSpaceOnUse">
<stop stop-color="#00DBBC"/>
<stop offset="1" stop-color="#FFB400"/>
</linearGradient>
<linearGradient id="paint1_linear_0_37" x1="25.9674" y1="29.3704" x2="40.1939" y2="19.6365" gradientUnits="userSpaceOnUse">
<stop stop-color="#403DF4"/>
<stop offset="1" stop-color="#FF5EAB"/>
</linearGradient>
<linearGradient id="paint2_linear_0_37" x1="44.2187" y1="12.9241" x2="44.2187" y2="43.0911" gradientUnits="userSpaceOnUse">
<stop stop-color="#001A42"/>
<stop offset="0.502058" stop-color="#3135CA"/>
<stop offset="1" stop-color="#403DF4"/>
</linearGradient>
</defs>
</svg>
