<svg width="96" height="96" viewBox="0 0 96 96" fill="none" xmlns="http://www.w3.org/2000/svg">
<path fill-rule="evenodd" clip-rule="evenodd" d="M87.3698 16.3859C84.2751 15.3585 80.8702 16.429 78.9201 19.0424L55.3447 50.6359V23.5683C55.3447 20.3075 53.256 17.4133 50.1613 16.3859C47.0666 15.3585 43.6617 16.429 41.7116 19.0424L4.50302 68.9057C2.00339 72.2555 2.69255 76.9973 6.04231 79.497C9.39208 81.9966 14.134 81.3074 16.6336 77.9576L40.209 46.3641V73.4317C40.209 76.6925 42.2977 79.5867 45.3924 80.6141C48.4871 81.6415 51.892 80.571 53.8421 77.9576L77.4176 46.3641V73.4317C77.4176 77.6113 80.8058 80.9995 84.9854 80.9995C89.165 80.9995 92.5532 77.6113 92.5532 73.4317V23.5683C92.5532 20.3075 90.4646 17.4133 87.3698 16.3859Z" fill="url(#paint0_linear_2155_161)"/>
<path fill-rule="evenodd" clip-rule="evenodd" d="M92.5532 46.6033V23.5683C92.5532 20.3075 90.4645 17.4133 87.3698 16.3859C84.2751 15.3585 80.8702 16.429 78.9201 19.0424L55.3447 50.6359V25.6681L40.209 46.6029V73.4317C40.209 76.6925 42.2977 79.5867 45.3924 80.6141C48.4871 81.6415 51.892 80.571 53.8421 77.9576L77.4175 46.3641V54.1551C77.85 53.5548 78.2039 53.0974 78.4664 52.8094C79.6855 51.4711 82.1657 50.5995 85.2308 49.5222C87.4504 48.7422 89.9768 47.8543 92.5532 46.6033Z" fill="url(#paint1_linear_2155_161)"/>
<path fill-rule="evenodd" clip-rule="evenodd" d="M92.5541 25.2573L77.5487 46.1439L77.4185 46.5582V73.4318C77.4185 77.6114 80.8067 80.9997 84.9863 80.9997C89.1659 80.9997 92.5541 77.6114 92.5541 73.4318V25.2573Z" fill="url(#paint2_linear_2155_161)"/>
<defs>
<linearGradient id="paint0_linear_2155_161" x1="20.4833" y1="63.699" x2="53.5522" y2="24.0304" gradientUnits="userSpaceOnUse">
<stop stop-color="#00DBBC"/>
<stop offset="1" stop-color="#FFB400"/>
</linearGradient>
<linearGradient id="paint1_linear_2155_161" x1="51.1453" y1="58.4268" x2="77.5224" y2="40.3793" gradientUnits="userSpaceOnUse">
<stop stop-color="#403DF4"/>
<stop offset="1" stop-color="#FF5EAB"/>
</linearGradient>
<linearGradient id="paint2_linear_2155_161" x1="84.9863" y1="27.9344" x2="84.9863" y2="83.8665" gradientUnits="userSpaceOnUse">
<stop stop-color="#001A42"/>
<stop offset="0.502058" stop-color="#3135CA"/>
<stop offset="1" stop-color="#403DF4"/>
</linearGradient>
</defs>
</svg>
